<?xml version="1.0" encoding="utf-8"?>
<!-- Generator: Adobe Illustrator 19.1.0, SVG Export Plug-In . SVG Version: 6.00 Build 0)  -->
<svg version="1.1" xmlns="http://www.w3.org/2000/svg" xmlns:xlink="http://www.w3.org/1999/xlink" x="0px" y="0px"
	 viewBox="0 0 152.3 28.1" style="enable-background:new 0 0 152.3 28.1;" xml:space="preserve">
<style type="text/css">
	.st0{fill:#E553AD;}
	.st1{fill:#E553AD;stroke:#E553AD;stroke-miterlimit:10;}
</style>
<g id="Lag_5">
	<path class="st0" d="M132.8-223v15.9h64V-223H132.8z M185.9-213.3c0,0.5-0.1,1-0.3,1.3s-0.4,0.7-0.7,1s-0.7,0.4-1.1,0.6
		s-0.9,0.2-1.3,0.2s-0.9-0.1-1.3-0.2s-0.8-0.3-1.1-0.6s-0.6-0.6-0.7-1s-0.3-0.8-0.3-1.3v-4.8c0-0.1,0-0.2,0.1-0.3s0.1-0.2,0.2-0.2
		s0.2-0.1,0.2-0.1s0.2,0,0.3,0c0.1,0,0.2,0,0.3,0s0.2,0.1,0.3,0.1s0.1,0.1,0.2,0.2s0.1,0.2,0.1,0.3v4.7c0,0.3,0.1,0.6,0.2,0.9
		s0.2,0.4,0.4,0.6s0.4,0.3,0.6,0.4s0.5,0.1,0.7,0.1c0.2,0,0.5,0,0.7-0.1s0.4-0.2,0.6-0.4s0.3-0.4,0.4-0.6s0.2-0.5,0.2-0.9v-4.7
		c0-0.1,0-0.2,0.1-0.3s0.1-0.2,0.2-0.2s0.2-0.1,0.3-0.1s0.2,0,0.3,0c0.1,0,0.2,0,0.3,0s0.2,0.1,0.3,0.1s0.1,0.1,0.2,0.2
		s0.1,0.2,0.1,0.3V-213.3z M194.1-215.2c-0.2,0.3-0.4,0.6-0.7,0.8s-0.7,0.3-1.1,0.4s-0.9,0.1-1.3,0.1h-1.4v2.7c0,0.1,0,0.2-0.1,0.3
		s-0.1,0.2-0.2,0.2s-0.2,0.1-0.3,0.1s-0.2,0-0.3,0s-0.2,0-0.3,0s-0.2-0.1-0.3-0.1s-0.1-0.1-0.2-0.2s-0.1-0.2-0.1-0.3v-6.9
		c0-0.1,0-0.2,0.1-0.3s0.1-0.2,0.2-0.2s0.2-0.1,0.3-0.2s0.2-0.1,0.3-0.1h2.4c0.4,0,0.9,0,1.3,0.1s0.7,0.2,1,0.4s0.5,0.5,0.7,0.8
		s0.3,0.7,0.3,1.2C194.4-215.9,194.3-215.5,194.1-215.2z"/>
	<text transform="matrix(1 0 0 1 134.5482 -210.4102)"><tspan x="0" y="0" style="font-family:'Nunito-Regular'; font-size:12px;">M</tspan><tspan x="11.7" y="0" style="font-family:'Nunito-Regular'; font-size:12px;">A</tspan><tspan x="20.2" y="0" style="font-family:'Nunito-Regular'; font-size:12px;">TC</tspan><tspan x="35.5" y="0" style="font-family:'Nunito-Regular'; font-size:12px;">H</tspan></text>
	<path class="st0" d="M192.3-217.5c-0.2-0.1-0.4-0.2-0.6-0.2s-0.5-0.1-0.7-0.1h-1.4v2.9h1.4c0.3,0,0.5,0,0.8-0.1s0.4-0.1,0.6-0.2
		s0.3-0.3,0.4-0.4s0.1-0.4,0.1-0.7s0-0.5-0.1-0.7S192.4-217.3,192.3-217.5z"/>
	<rect x="138.2" y="-181.4" class="st0" width="64" height="15.9"/>
</g>
<g id="Lag_8">
</g>
<g id="Lag_7">
	<path class="st0" d="M261.2-183.9v15.9h64v-15.9H261.2z M314.4-174.2c0,0.5-0.1,1-0.3,1.3s-0.4,0.7-0.7,1s-0.7,0.4-1.1,0.6
		s-0.9,0.2-1.3,0.2s-0.9-0.1-1.3-0.2s-0.8-0.3-1.1-0.6s-0.6-0.6-0.7-1s-0.3-0.8-0.3-1.3v-4.8c0-0.1,0-0.2,0.1-0.3s0.1-0.2,0.2-0.2
		s0.2-0.1,0.2-0.1s0.2,0,0.3,0c0.1,0,0.2,0,0.3,0s0.2,0.1,0.3,0.1s0.1,0.1,0.2,0.2s0.1,0.2,0.1,0.3v4.7c0,0.3,0.1,0.6,0.2,0.9
		s0.2,0.4,0.4,0.6s0.4,0.3,0.6,0.4s0.5,0.1,0.7,0.1c0.2,0,0.5,0,0.7-0.1s0.4-0.2,0.6-0.4s0.3-0.4,0.4-0.6s0.2-0.5,0.2-0.9v-4.7
		c0-0.1,0-0.2,0.1-0.3s0.1-0.2,0.2-0.2s0.2-0.1,0.3-0.1s0.2,0,0.3,0c0.1,0,0.2,0,0.3,0s0.2,0.1,0.3,0.1s0.1,0.1,0.2,0.2
		s0.1,0.2,0.1,0.3V-174.2z M322.6-176c-0.2,0.3-0.4,0.6-0.7,0.8s-0.7,0.3-1.1,0.4s-0.9,0.1-1.3,0.1H318v2.7c0,0.1,0,0.2-0.1,0.3
		s-0.1,0.2-0.2,0.2s-0.2,0.1-0.3,0.1s-0.2,0-0.3,0s-0.2,0-0.3,0s-0.2-0.1-0.3-0.1s-0.1-0.1-0.2-0.2s-0.1-0.2-0.1-0.3v-6.9
		c0-0.1,0-0.2,0.1-0.3s0.1-0.2,0.2-0.2s0.2-0.1,0.3-0.2s0.2-0.1,0.3-0.1h2.4c0.4,0,0.9,0,1.3,0.1s0.7,0.2,1,0.4s0.5,0.5,0.7,0.8
		s0.3,0.7,0.3,1.2C322.8-176.7,322.7-176.3,322.6-176z"/>
	<text transform="matrix(1 0 0 1 263.0027 -171.2699)"><tspan x="0" y="0" style="font-family:'Nunito-Regular'; font-size:12px;">M</tspan><tspan x="11.7" y="0" style="font-family:'Nunito-Regular'; font-size:12px;">A</tspan><tspan x="20.2" y="0" style="font-family:'Nunito-Regular'; font-size:12px;">TC</tspan><tspan x="35.5" y="0" style="font-family:'Nunito-Regular'; font-size:12px;">H</tspan></text>
	<path class="st0" d="M320.7-178.3c-0.2-0.1-0.4-0.2-0.6-0.2s-0.5-0.1-0.7-0.1H318v2.9h1.4c0.3,0,0.5,0,0.8-0.1s0.4-0.1,0.6-0.2
		s0.3-0.3,0.4-0.4s0.1-0.4,0.1-0.7s0-0.5-0.1-0.7S320.9-178.2,320.7-178.3z"/>
</g>
<g id="Lag_6">
</g>
<g id="Lag_1">
	<text transform="matrix(1 0 0 1 36.7657 -209.1177)" style="font-family:'Nunito-Regular'; font-size:12px;">MA</text>
	<text transform="matrix(1 0 0 1 56.963 -209.1177)" class="st0" style="font-family:'Nunito-Regular'; font-size:12px;">T</text>
	<text transform="matrix(1 0 0 1 63.9649 -209.1177)" style="font-family:'Nunito-Regular'; font-size:12px;">C</text>
	<text transform="matrix(1 0 0 1 72.297 -209.1177)" style="font-family:'Nunito-Regular'; font-size:12px;">H</text>
	<text transform="matrix(0.583 0 0 0.583 81.4669 -213.1138)" class="st1" style="font-family:'Nunito-Regular'; font-size:12px;">U</text>
	<text transform="matrix(0.583 0 0 0.583 86.775 -213.1138)" class="st1" style="font-family:'Nunito-Regular'; font-size:12px;">P</text>
</g>
<g id="Lag_4">
	<text transform="matrix(1 0 0 1 36.7659 -151.3531)"><tspan x="0" y="0" style="font-family:'Nunito-Regular'; font-size:12px;">M</tspan><tspan x="11.7" y="0" class="st0" style="font-family:'Nunito-Regular'; font-size:12px;">A</tspan><tspan x="20.2" y="0" style="font-family:'Nunito-Regular'; font-size:12px;">TC</tspan><tspan x="35.5" y="0" style="font-family:'Nunito-Regular'; font-size:12px;">H</tspan><tspan x="44.7" y="0" class="st0" style="font-family:'Nunito-Regular'; font-size:12px;">UP</tspan></text>
	<text transform="matrix(1 0 0 1 43.8702 -66.5854)"><tspan x="0" y="0" style="font-family:'Nunito-Regular'; font-size:12px;">M</tspan><tspan x="11.7" y="0" style="font-family:'Nunito-Regular'; font-size:12px;">A</tspan><tspan x="20.2" y="0" style="font-family:'Nunito-Regular'; font-size:12px;">TC</tspan><tspan x="35.5" y="0" style="font-family:'Nunito-Regular'; font-size:12px;">H</tspan><tspan x="44.7" y="0" class="st0" style="font-family:'Nunito-Regular'; font-size:12px;">UP</tspan></text>
	<g>
		<path d="M13.9,20.1l6-13.5c0.2-0.6,0.5-1,0.7-1.4c0.2-0.4,0.5-0.7,0.7-0.9c0.3-0.2,0.5-0.4,0.8-0.5c0.3-0.1,0.6-0.1,1-0.1
			c0.4,0,0.7,0.1,1.1,0.2c0.3,0.1,0.6,0.3,0.9,0.6c0.3,0.3,0.5,0.6,0.6,1c0.2,0.4,0.2,0.9,0.2,1.5v16.3c0,0.3,0,0.5-0.1,0.7
			c-0.1,0.2-0.2,0.4-0.4,0.5c-0.2,0.1-0.3,0.3-0.5,0.3c-0.2,0.1-0.4,0.1-0.6,0.1s-0.4,0-0.6-0.1c-0.2-0.1-0.4-0.2-0.5-0.3
			s-0.3-0.3-0.4-0.5c-0.1-0.2-0.1-0.5-0.1-0.7V7.5l-6.5,15c-0.1,0.3-0.2,0.5-0.4,0.7c-0.2,0.2-0.3,0.4-0.6,0.5s-0.4,0.3-0.7,0.3
			c-0.2,0.1-0.5,0.1-0.7,0.1c-0.5,0-0.9-0.1-1.3-0.4c-0.4-0.3-0.7-0.7-0.9-1.3L5.1,7.6v15.6c0,0.3,0,0.5-0.1,0.7
			c-0.1,0.2-0.2,0.4-0.4,0.5c-0.2,0.1-0.3,0.3-0.5,0.3c-0.2,0.1-0.4,0.1-0.6,0.1s-0.4,0-0.6-0.1c-0.2-0.1-0.4-0.2-0.5-0.3
			C2.1,24.3,2,24.2,1.9,24c-0.1-0.2-0.1-0.5-0.1-0.7V6.9c0-0.6,0.1-1.1,0.2-1.5c0.2-0.4,0.4-0.7,0.6-1S3.2,4,3.5,3.9
			c0.3-0.1,0.7-0.2,1.1-0.2c0.4,0,0.7,0,1,0.1C6,3.9,6.3,4.1,6.5,4.3C6.8,4.5,7,4.8,7.2,5.2c0.2,0.4,0.5,0.8,0.7,1.4L13.9,20.1
			L13.9,20.1z"/>
		<path d="M49,22.6c0.1,0.2,0.1,0.4,0.1,0.6c0,0.3-0.1,0.5-0.2,0.7c-0.1,0.2-0.3,0.4-0.5,0.5c-0.2,0.1-0.4,0.3-0.6,0.3
			c-0.2,0.1-0.5,0.1-0.7,0.1c-0.4,0-0.7-0.1-1-0.3c-0.3-0.2-0.5-0.5-0.6-1l-1.5-3.9h-9.5l-1.5,3.9c-0.1,0.4-0.3,0.8-0.6,1
			c-0.3,0.2-0.6,0.3-1,0.3c-0.2,0-0.5,0-0.7-0.1c-0.2-0.1-0.4-0.2-0.6-0.3c-0.2-0.1-0.3-0.3-0.4-0.5c-0.1-0.2-0.2-0.4-0.2-0.7
			c0-0.1,0-0.2,0-0.3c0-0.1,0-0.2,0.1-0.3l6.2-15.5c0.2-0.7,0.5-1.3,0.7-1.7c0.2-0.4,0.5-0.8,0.8-1s0.6-0.4,0.9-0.5
			c0.3-0.1,0.7-0.1,1.1-0.1c0.4,0,0.8,0.1,1.1,0.2s0.6,0.3,0.9,0.5c0.3,0.3,0.5,0.6,0.8,1s0.5,1,0.7,1.7L49,22.6z M39.2,6.7
			l-3.9,10.5h7.8L39.2,6.7L39.2,6.7z"/>
		<path d="M49.7,6.7c-0.3,0-0.5,0-0.7-0.1c-0.2-0.1-0.3-0.2-0.5-0.3c-0.1-0.1-0.2-0.3-0.3-0.5c-0.1-0.2-0.1-0.4-0.1-0.5
			c0-0.2,0-0.4,0.1-0.6s0.2-0.3,0.3-0.5C48.7,4,48.8,3.9,49,3.8c0.2-0.1,0.4-0.1,0.7-0.1h13.9c0.2,0,0.5,0,0.6,0.1s0.3,0.2,0.5,0.3
			S65,4.5,65,4.6c0.1,0.2,0.1,0.4,0.1,0.5c0,0.2,0,0.4-0.1,0.5c-0.1,0.2-0.2,0.3-0.3,0.5s-0.3,0.3-0.5,0.3c-0.2,0.1-0.4,0.1-0.7,0.1
			h-5V23c0,0.3-0.1,0.6-0.2,0.8c-0.1,0.2-0.3,0.4-0.5,0.6c-0.2,0.2-0.4,0.3-0.6,0.4c-0.2,0.1-0.5,0.1-0.7,0.1s-0.5,0-0.7-0.1
			c-0.2-0.1-0.4-0.2-0.6-0.4c-0.2-0.2-0.3-0.4-0.5-0.6c-0.1-0.2-0.2-0.5-0.2-0.8V6.7H49.7z"/>
		<path d="M67,14.4c0-1.7,0.2-3.3,0.7-4.7c0.5-1.4,1.2-2.6,2.1-3.5c0.9-1,1.9-1.7,3.2-2.2c1.2-0.5,2.5-0.8,4-0.8
			c0.9,0,1.8,0.1,2.8,0.3c1,0.2,1.9,0.5,3,1c0.3,0.1,0.6,0.3,0.7,0.6c0.1,0.3,0.2,0.5,0.2,0.8c0,0.2,0,0.4-0.1,0.5s-0.2,0.3-0.3,0.5
			S83,7.2,82.8,7.3c-0.2,0.1-0.4,0.1-0.6,0.1c-0.2,0-0.4,0-0.6-0.1c-1.6-0.6-3-0.8-4.2-0.8c-1,0-1.9,0.2-2.7,0.5
			c-0.8,0.4-1.4,0.9-2,1.5S71.8,10,71.5,11s-0.4,2.1-0.4,3.4c0,1.2,0.1,2.2,0.4,3.2c0.2,1,0.6,1.8,1.1,2.5s1.1,1.2,1.9,1.6
			c0.7,0.4,1.6,0.6,2.6,0.6c0.7,0,1.5-0.1,2.3-0.3c0.8-0.2,1.7-0.5,2.6-0.9c0.1-0.1,0.3-0.1,0.4-0.1c0.1,0,0.2,0,0.3,0
			c0.2,0,0.4,0,0.6,0.1c0.2,0.1,0.3,0.2,0.4,0.3s0.2,0.3,0.3,0.5C84,21.9,84,22,84,22.2c0,0.3-0.1,0.6-0.3,0.9
			c-0.2,0.3-0.5,0.5-0.9,0.7c-2.2,1-4.2,1.5-6.1,1.5c-1.4,0-2.8-0.3-4-0.8c-1.2-0.5-2.2-1.3-3.1-2.3c-0.9-1-1.5-2.1-2-3.5
			C67.2,17.5,67,16.1,67,14.4z"/>
		<path d="M102.4,5.6c0-0.3,0.1-0.6,0.2-0.8c0.1-0.2,0.3-0.4,0.4-0.6c0.2-0.2,0.4-0.3,0.6-0.4c0.2-0.1,0.5-0.1,0.7-0.1
			c0.2,0,0.5,0,0.7,0.1c0.2,0.1,0.4,0.2,0.6,0.4c0.2,0.2,0.3,0.4,0.5,0.6c0.1,0.2,0.2,0.5,0.2,0.8V23c0,0.3-0.1,0.6-0.2,0.8
			c-0.1,0.2-0.3,0.4-0.5,0.6c-0.2,0.2-0.4,0.3-0.6,0.4s-0.5,0.1-0.7,0.1c-0.2,0-0.5,0-0.7-0.1s-0.4-0.2-0.6-0.4s-0.3-0.4-0.4-0.6
			c-0.1-0.2-0.2-0.5-0.2-0.8v-7.5H93V23c0,0.3-0.1,0.6-0.2,0.8s-0.3,0.4-0.5,0.6s-0.4,0.3-0.6,0.4c-0.2,0.1-0.5,0.1-0.7,0.1
			c-0.2,0-0.5,0-0.7-0.1c-0.2-0.1-0.4-0.2-0.6-0.4s-0.3-0.4-0.5-0.6S89,23.3,89,23V5.6c0-0.3,0.1-0.6,0.2-0.8
			c0.1-0.2,0.3-0.4,0.5-0.6c0.2-0.2,0.4-0.3,0.6-0.4c0.2-0.1,0.5-0.1,0.7-0.1c0.2,0,0.5,0,0.7,0.1c0.2,0.1,0.4,0.2,0.6,0.4
			s0.3,0.4,0.5,0.6S93,5.3,93,5.6v6.7h9.4V5.6z"/>
		<path class="st0" d="M112,5.6c0-0.3,0.1-0.6,0.2-0.8s0.3-0.4,0.4-0.6c0.2-0.2,0.4-0.3,0.6-0.4c0.2-0.1,0.5-0.1,0.7-0.1
			c0.2,0,0.5,0,0.7,0.1c0.2,0.1,0.4,0.2,0.6,0.4s0.3,0.4,0.5,0.6c0.1,0.2,0.2,0.5,0.2,0.8v11.9c0,0.8,0.1,1.6,0.4,2.2
			c0.3,0.6,0.6,1.1,1.1,1.5c0.4,0.4,0.9,0.7,1.5,0.9c0.6,0.2,1.1,0.3,1.7,0.3c0.6,0,1.2-0.1,1.7-0.3c0.6-0.2,1.1-0.5,1.5-0.9
			c0.4-0.4,0.8-0.9,1.1-1.5s0.4-1.3,0.4-2.2V5.6c0-0.3,0.1-0.6,0.2-0.8s0.3-0.4,0.5-0.6s0.4-0.3,0.6-0.4c0.2-0.1,0.5-0.1,0.7-0.1
			c0.2,0,0.5,0,0.7,0.1c0.2,0.1,0.4,0.2,0.6,0.4c0.2,0.2,0.3,0.4,0.5,0.6c0.1,0.2,0.2,0.5,0.2,0.8v12.1c0,1.3-0.2,2.4-0.7,3.4
			c-0.5,1-1.1,1.8-1.9,2.4s-1.7,1.1-2.8,1.4c-1.1,0.3-2.2,0.5-3.4,0.5c-1.2,0-2.3-0.2-3.4-0.5s-2-0.8-2.8-1.4s-1.4-1.4-1.9-2.4
			S112,19,112,17.7V5.6z"/>
		<path class="st0" d="M139,16.4V23c0,0.3-0.1,0.6-0.2,0.8c-0.1,0.2-0.3,0.4-0.5,0.6c-0.2,0.2-0.4,0.3-0.6,0.4
			c-0.2,0.1-0.5,0.1-0.7,0.1c-0.2,0-0.5,0-0.7-0.1c-0.2-0.1-0.4-0.2-0.6-0.4c-0.2-0.2-0.3-0.4-0.5-0.6c-0.1-0.2-0.2-0.5-0.2-0.8V5.7
			c0-0.3,0.1-0.5,0.2-0.8s0.2-0.5,0.4-0.6c0.2-0.2,0.4-0.3,0.6-0.4s0.5-0.2,0.8-0.2h6c1.1,0,2.2,0.1,3.2,0.3c1,0.2,1.9,0.6,2.6,1.1
			c0.8,0.5,1.4,1.2,1.8,1.9c0.4,0.8,0.7,1.8,0.7,2.9c0,1.2-0.2,2.2-0.7,3c-0.5,0.8-1.1,1.5-1.9,2S147,15.8,146,16
			c-1,0.2-2.1,0.3-3.3,0.3H139z M142.5,13.6c0.7,0,1.3-0.1,1.9-0.2c0.6-0.1,1.1-0.3,1.5-0.6c0.4-0.3,0.8-0.7,1-1.1
			c0.2-0.5,0.4-1,0.4-1.7s-0.1-1.3-0.4-1.7c-0.2-0.5-0.6-0.8-1-1.1c-0.4-0.3-0.9-0.5-1.5-0.6c-0.6-0.1-1.2-0.2-1.8-0.2H139v7.2
			H142.5z"/>
	</g>
</g>
<g id="Lag_2">
	<text transform="matrix(1 0 0 1 36.7658 -181.3502)"><tspan x="0" y="0" style="font-family:'Nunito-Regular'; font-size:12px;">MATC</tspan><tspan x="35.5" y="0" style="font-family:'Nunito-Regular'; font-size:12px;">H</tspan></text>
	<g id="Pil_6">
		<polygon class="st0" points="78.5,-191.8 82,-191.8 82,-181.5 89.1,-181.5 89.1,-191.6 92.6,-191.6 85.6,-198.7 		"/>
	</g>
</g>
</svg>
